Coordinates
version=1
nRows=10
nColumns=38
inDegrees=no

Units are S.I. units (second, meters, Newtons, ...)
If the header above contains a line with 'inDegrees', this indicates whether rotational values are in degrees (yes) or radians (no).

endheader
time	pelvis_tilt	pelvis_list	pelvis_rotation	pelvis_tx	pelvis_ty	pelvis_tz	hip_flexion_r	hip_adduction_r	hip_rotation_r	knee_angle_r	ankle_angle_r	subtalar_angle_r	mtp_angle_r	hip_flexion_l	hip_adduction_l	hip_rotation_l	knee_angle_l	ankle_angle_l	subtalar_angle_l	mtp_angle_l	lumbar_extension	lumbar_bending	lumbar_rotation	arm_flex_r	arm_add_r	arm_rot_r	elbow_flex_r	pro_sup_r	wrist_flex_r	wrist_dev_r	arm_flex_l	arm_add_l	arm_rot_l	elbow_flex_l	pro_sup_l	wrist_flex_l	wrist_dev_l
1.93	-0.211805	-0.0222529	-0.00435693	0.672873	0.953406	-0.33672	0.33878	0.0519946	-0.128231	-0.752689	0.47538	0.000369651	0.0034702	0.777555	-0.0548746	-0.0646597	-1.76467	0.113852	0.030297	0.00968823	-0.0410003	0.0854946	-0.022079	-0.186783	-0.287613	-0.0553411	1.49436	1.56383	0.0331994	-0.033171	-0.60192	-0.567949	0.22551	1.80796	1.42266	-0.00715182	-0.00142931
1.94	-0.218005	-0.0108515	-0.00562071	0.672655	0.9576	-0.337364	0.29527	0.0399447	-0.126625	-0.716804	0.436098	0.000369651	0.0034702	0.814074	-0.0372524	-0.0665342	-1.72349	0.126739	0.030297	0.00968823	-0.0339282	0.069466	-0.0098005	-0.17593	-0.281467	-0.0425077	1.52454	1.57076	0.0331994	-0.033171	-0.638453	-0.572338	0.217054	1.81989	1.42476	-0.00715182	-0.00142931
1.95	-0.223963	0.00142885	-0.00728155	0.673031	0.962522	-0.33792	0.252271	0.026538	-0.125749	-0.680196	0.385374	0.000369651	0.0034702	0.843709	-0.0220587	-0.072674	-1.66999	0.138568	0.030297	0.00968823	-0.0259256	0.051848	0.00240045	-0.168845	-0.275562	-0.0294211	1.55499	1.57412	0.0331994	-0.033171	-0.674258	-0.574842	0.207611	1.83255	1.42713	-0.00715182	-0.00142931
1.96	-0.229507	0.013924	-0.00911923	0.673921	0.967981	-0.338388	0.210818	0.0123268	-0.12625	-0.644721	0.324388	0.000369651	0.0034702	0.866007	-0.00965439	-0.0820018	-1.60452	0.149031	0.030297	0.00968823	-0.0173827	0.0334482	0.0141971	-0.165204	-0.2701	-0.0160793	1.5849	1.57413	0.0331994	-0.033171	-0.708652	-0.575281	0.197167	1.84511	1.42898	-0.00715182	-0.00142931
1.97	-0.234435	0.0259323	-0.0108374	0.675226	0.973771	-0.33878	0.171767	-0.00202168	-0.128643	-0.612104	0.255172	0.000369651	0.0034702	0.880637	1.53113e-05	-0.093078	-1.52754	0.157823	0.030297	0.00968823	-0.00876439	0.0151311	0.0252187	-0.164594	-0.265234	-0.00255828	1.61352	1.57172	0.0331994	-0.033171	-0.740842	-0.573692	0.185922	1.85691	1.42969	-0.00715182	-0.00142931
1.98	-0.238559	0.0367691	-0.0121048	0.676828	0.979669	-0.339116	0.135779	-0.0157774	-0.13317	-0.58391	0.180634	0.000369651	0.0034702	0.887444	0.00736839	-0.104258	-1.43966	0.164634	0.030297	0.00968823	-0.000548155	-0.00227324	0.0350892	-0.166565	-0.261051	0.010976	1.64008	1.56841	0.0331994	-0.033171	-0.770001	-0.570333	0.174251	1.86752	1.42894	-0.00715182	-0.00142931
1.99	-0.241773	0.0458332	-0.0126101	0.678611	0.985453	-0.339422	0.103323	-0.0282074	-0.139695	-0.561538	0.104436	0.000369651	0.0034702	0.886516	0.0130553	-0.11392	-1.34187	0.169141	0.030297	0.00968823	0.00682999	-0.0180453	0.0434734	-0.170669	-0.257576	0.0242646	1.66386	1.56605	0.0331994	-0.033171	-0.795352	-0.565635	0.162642	1.87668	1.42669	-0.00715182	-0.00142931
2	-0.244017	0.0527011	-0.0121081	0.680476	0.990908	-0.339737	0.0747163	-0.0386283	-0.147677	-0.546221	0.0307078	0.000369651	0.0034702	0.878257	0.0177651	-0.120733	-1.23574	0.171014	0.030297	0.00968823	0.0130318	-0.0316179	0.0501202	-0.17649	-0.254771	0.0369721	1.6842	1.56649	0.0331994	-0.033171	-0.816251	-0.560149	0.151626	1.88435	1.42321	-0.00715182	-0.00142931
2.01	-0.245249	0.0571168	-0.0104491	0.682341	0.995835	-0.340087	0.0501716	-0.0464738	-0.156205	-0.539039	-0.0364099	0.000369651	0.0034702	0.863431	0.0220361	-0.12392	-1.12357	0.169947	0.030297	0.00968823	0.0178302	-0.0426161	0.0548837	-0.183655	-0.25255	0.0487262	1.70052	1.57112	0.0331994	-0.033171	-0.832243	-0.554459	0.141707	1.89065	1.41893	-0.00715182	-0.00142931
2.02	-0.245452	0.0589735	-0.00758891	0.684149	1.00006	-0.340496	0.0298479	-0.0513451	-0.164152	-0.540937	-0.0933085	0.000369651	0.0034702	0.84317	0.026114	-0.123427	-1.00851	0.165728	0.030297	0.00968823	0.0210865	-0.0508558	0.0577144	-0.191824	-0.250797	0.0591766	1.71238	1.58046	0.0331994	-0.033171	-0.843086	-0.549115	0.1333	1.8958	1.41433	-0.00715182	-0.00142931
